<svg width="31" height="32" viewBox="0 0 31 32" fill="none" xmlns="http://www.w3.org/2000/svg">
<path d="M0.600236 5.45926C0.344719 5.80911 0.275589 6.48206 0.260207 6.6842C0.257224 6.72339 0.256348 6.76268 0.256348 6.80198V7.23358C0.256348 7.60517 0.400483 7.96227 0.658426 8.22975C0.928895 8.51022 1.30178 8.66865 1.69141 8.66865H3.21379H6.18111C6.56772 8.66865 6.93503 8.83758 7.18665 9.13111C7.28838 9.24978 7.36829 9.38553 7.4227 9.53206L11.9791 21.8033C12.1878 22.3656 12.4222 22.9178 12.7263 23.4348C12.7485 23.4726 12.7715 23.5113 12.7952 23.5509C14.2321 25.9508 17.0608 26.7125 19.858 26.7125C20.7223 26.7125 21.4143 27.4296 21.3834 28.2934L21.3226 29.9952C21.3092 30.3713 21.3522 30.7523 21.5221 31.0881C21.5966 31.2354 21.686 31.3844 21.7838 31.491C22.7424 32.5363 24.4268 31.4931 25.5036 30.5698L30.2375 26.5105C30.7214 26.0955 31 25.4898 31 24.8523C31 24.2633 30.7621 23.6992 30.3403 23.2881L27.5611 20.579L24.625 18.3238C24.1202 17.936 23.5782 17.6824 22.9548 17.811C22.7343 17.8565 22.4517 18.0116 22.2765 18.153L22.0619 18.326C21.9688 18.4012 21.8883 18.4908 21.8236 18.5914C21.7078 18.7716 21.6462 18.9812 21.6462 19.1954V19.7154C21.6462 21.3546 20.2832 22.665 18.6453 22.6005L18.348 22.5888C17.0572 22.5379 15.926 21.7097 15.4877 20.4946L12.8613 13.2135C12.8489 13.179 12.837 13.1464 12.8242 13.1121C12.6679 12.6917 11.5481 9.69954 10.6418 7.81281C10.3311 7.16607 10.26 6.72967 9.81644 6.17246C8.86908 4.98242 7.16757 4.81738 5.64649 4.81738H3.21379H2.60442C1.8729 4.81738 1.03169 4.86853 0.600236 5.45926Z" fill="#F5F5F5"/>
<path d="M5.89616 22.8613L7.13415 22.576L7.68438 21.8628L8.57849 19.224C8.57849 19.224 10.8461 13.8769 11.3296 12.6626C12.0956 10.7386 12.0861 10.9509 12.0861 10.9509L13.9431 16.4425L11.811 21.2209L11.0545 23.2179C11.0545 23.2179 10.3996 24.6355 9.74771 25.3575C9.21156 25.9513 8.16582 26.6413 8.16582 26.6413H1.83828H0.806612C0.806612 26.6413 0.343958 26.1705 0.187613 25.7854C-0.0625377 25.1694 -0.0625377 24.6898 0.187613 24.0738C0.343958 23.6887 0.48859 23.4744 0.806612 23.2179C1.04365 23.0267 1.20911 22.9586 1.49439 22.8613C2.10677 22.6525 3.14505 22.8613 3.14505 22.8613H5.89616Z" fill="#F5F5F5"/>
<path d="M14.8372 12.6626L12.7051 7.52754L14.0119 5.88718C14.0119 5.88718 14.7246 5.21542 15.2499 4.88871C17.3249 3.59799 21.4398 4.60343 21.4398 4.60343V0.894803C21.4398 0.894803 22.0047 0.294915 22.4715 0.110286C23.0989 -0.137857 24.1909 0.110286 24.1909 0.110286L30.8624 5.88718V7.81282L23.8471 13.661C23.8471 13.661 22.7786 13.948 22.1964 13.661C21.628 13.3809 21.1647 12.3773 21.1647 12.3773V8.95393H16.4191L14.8372 12.6626Z" fill="#F5F5F5"/>
</svg>
