<svg width="620" height="620" viewBox="0 0 620 620" fill="none" xmlns="http://www.w3.org/2000/svg">
<path d="M472.138 216.181C467.823 210.838 461.562 207.428 454.732 206.702C447.902 205.975 441.064 207.991 435.721 212.307C430.378 216.622 426.968 222.884 426.241 229.713C425.515 236.543 427.531 243.381 431.846 248.725C444.895 266.466 451.933 287.914 451.933 309.937C451.933 331.961 444.895 353.408 431.846 371.15C428.767 374.946 426.828 379.537 426.255 384.391C425.681 389.245 426.497 394.162 428.606 398.571C430.716 402.979 434.033 406.699 438.173 409.298C442.313 411.896 447.105 413.267 451.992 413.25C455.851 413.263 459.663 412.411 463.15 410.758C466.636 409.104 469.707 406.69 472.138 403.693C492.625 376.731 503.717 343.8 503.717 309.937C503.717 276.074 492.625 243.144 472.138 216.181V216.181Z" fill="#F5F5F5"/>
<path d="M507.26 135.082C504.648 132.911 501.635 131.276 498.391 130.27C495.148 129.264 491.738 128.907 488.356 129.219C484.974 129.53 481.687 130.505 478.682 132.087C475.677 133.67 473.013 135.828 470.842 138.44C468.672 141.051 467.037 144.065 466.03 147.309C465.024 150.552 464.667 153.962 464.979 157.344C465.291 160.726 466.265 164.013 467.848 167.018C469.43 170.023 471.588 172.687 474.2 174.857C494.915 190.868 511.789 211.306 523.586 234.678C535.384 258.05 541.808 283.764 542.386 309.939C541.808 336.113 535.384 361.827 523.586 385.199C511.789 408.571 494.915 429.01 474.2 445.02C471.585 447.188 469.423 449.851 467.838 452.856C466.254 455.861 465.277 459.149 464.966 462.532C464.654 465.915 465.012 469.326 466.021 472.57C467.029 475.815 468.668 478.828 470.842 481.438C473.271 484.353 476.312 486.698 479.749 488.305C483.186 489.912 486.936 490.742 490.73 490.736C496.765 490.748 502.613 488.646 507.26 484.795C533.875 463.989 555.486 437.48 570.504 407.22C585.523 376.96 593.566 343.718 594.043 309.939C593.566 276.16 585.523 242.918 570.504 212.657C555.486 182.397 533.875 155.889 507.26 135.082V135.082Z" fill="#F5F5F5"/>
<path d="M373.733 80.5853C369.807 78.3184 365.353 77.125 360.819 77.125C356.286 77.125 351.832 78.3184 347.905 80.5853L180.797 195.521H51.6563C44.8062 195.521 38.2367 198.242 33.393 203.086C28.5493 207.929 25.8281 214.499 25.8281 221.349V398.53C25.8281 405.38 28.5493 411.95 33.393 416.793C38.2367 421.637 44.8062 424.358 51.6563 424.358H180.797L346.356 538.002C350.891 540.937 356.193 542.465 361.594 542.393C368.444 542.393 375.014 539.672 379.857 534.828C384.701 529.984 387.422 523.415 387.422 516.565V103.314C387.41 98.6417 386.13 94.0602 383.72 90.0576C381.309 86.055 377.858 82.7813 373.733 80.5853V80.5853Z" fill="#F5F5F5"/>
</svg>
